<svg width="32" height="33" viewBox="0 0 32 33" fill="none" xmlns="http://www.w3.org/2000/svg">
<path d="M18.6719 8.89062L19.7969 11.4219L15.4375 15.7344C15.1562 16.0156 15.1562 16.5312 15.4375 16.8125C15.5781 16.9531 15.7656 17 15.9531 17C16.1875 17 16.375 16.9531 16.5156 16.8125L20.8281 12.4531L23.3594 13.5781C23.4531 13.625 23.5469 13.625 23.6406 13.625C23.9219 13.625 24.1562 13.5312 24.3438 13.3438L27.2969 10.3906C27.8125 9.875 27.625 9.03125 26.9219 8.79688L24.3438 7.90625L23.4531 5.32812C23.3125 4.90625 22.9375 4.625 22.5625 4.625C22.3281 4.625 22.0469 4.71875 21.8594 4.95312L18.9062 7.90625C18.7188 8.09375 18.5781 8.32812 18.5781 8.60938C18.5781 8.70312 18.625 8.79688 18.6719 8.89062ZM22.3281 6.59375L22.8906 8.375L23.125 9.125L23.875 9.35938L25.6562 9.92188L23.5469 12.0312L21.25 11L20.2188 8.70312L22.3281 6.59375ZM27.0625 12.7812L25.8438 14C25.9844 14.7031 26.125 15.5 26.125 16.25C26.125 21.875 21.5781 26.375 16 26.375C10.375 26.375 5.875 21.875 5.875 16.25C5.875 10.6719 10.375 6.125 16 6.125C16.75 6.125 17.5469 6.26562 18.25 6.40625L19.4688 5.1875C18.3906 4.85938 17.2188 4.67188 16 4.67188V4.625C9.57812 4.625 4.375 9.875 4.375 16.25C4.375 22.6719 9.57812 27.875 16 27.875C22.375 27.875 27.625 22.6719 27.625 16.25C27.625 15.0312 27.3906 13.8594 27.0625 12.7812ZM17.2188 9.35938C17.1719 9.17188 17.125 8.9375 17.125 8.70312C16.75 8.65625 16.375 8.5625 16 8.5625C11.7344 8.5625 8.3125 12.0312 8.3125 16.25C8.3125 20.5156 11.7344 23.9375 16 23.9375C20.2188 23.9375 23.6875 20.5156 23.6875 16.25C23.6875 15.875 23.5938 15.5 23.5469 15.125C23.3125 15.125 23.0781 15.0781 22.8906 15.0312C22.7969 14.9844 22.9375 15.0312 21.9062 14.6094C22.0469 15.125 22.1875 15.6875 22.1875 16.25C22.1875 19.6719 19.375 22.4375 16 22.4375C12.5781 22.4375 9.8125 19.6719 9.8125 16.25C9.8125 12.875 12.5781 10.0625 16 10.0625C16.5625 10.0625 17.125 10.2031 17.6406 10.3438C17.2188 9.3125 17.2656 9.45312 17.2188 9.35938ZM16 12.5C13.8906 12.5 12.25 14.1875 12.25 16.25C12.25 18.3594 13.8906 20 16 20C18.0625 20 19.75 18.3594 19.75 16.25C19.75 16.1094 19.7031 15.9219 19.6562 15.7344L17.5469 17.8438C17.1719 18.2656 16.6094 18.5 16 18.5C14.7344 18.5 13.75 17.5156 13.75 16.25C13.75 15.6406 13.9844 15.0781 14.4062 14.7031L16.5156 12.5938C16.3281 12.5469 16.1406 12.5 16 12.5Z" fill="#4DDBB7"/>
</svg>
