<svg width="33" height="33" viewBox="0 0 33 33" fill="none" xmlns="http://www.w3.org/2000/svg">
<path d="M23.4167 7.61377H19.2448C19.2448 7.52002 19.2917 7.37939 19.2917 7.23877C19.2917 5.83252 18.0729 4.61377 16.6667 4.61377C15.2135 4.61377 14.0417 5.83252 14.0417 7.23877C14.0417 7.37939 14.0417 7.52002 14.0417 7.61377H9.91666C8.65103 7.61377 7.66666 8.64502 7.66666 9.86377V26.3638C7.66666 27.6294 8.65103 28.6138 9.91666 28.6138H23.4167C24.6354 28.6138 25.6667 27.6294 25.6667 26.3638V9.86377C25.6667 8.64502 24.6354 7.61377 23.4167 7.61377ZM16.6667 6.11377C17.276 6.11377 17.7917 6.62939 17.7917 7.23877C17.7917 7.89502 17.276 8.36377 16.6667 8.36377C16.0104 8.36377 15.5417 7.89502 15.5417 7.23877C15.5417 6.62939 16.0104 6.11377 16.6667 6.11377ZM24.1667 26.3638C24.1667 26.7856 23.7917 27.1138 23.4167 27.1138H9.91666C9.49478 27.1138 9.16666 26.7856 9.16666 26.3638V9.86377C9.16666 9.48877 9.49478 9.11377 9.91666 9.11377H12.1667V10.0513C12.1667 10.3794 12.401 10.6138 12.7292 10.6138H20.6042C20.8854 10.6138 21.1667 10.3794 21.1667 10.0513V9.11377H23.4167C23.7917 9.11377 24.1667 9.48877 24.1667 9.86377V26.3638ZM21.401 15.3013C21.1667 15.0669 20.7917 15.0669 20.6042 15.3013L15.0729 20.7856L12.7292 18.395C12.4948 18.1606 12.1198 18.1606 11.9323 18.395L11.5104 18.8169C11.276 19.0044 11.276 19.3794 11.5104 19.6138L14.651 22.7544C14.8854 22.9888 15.2604 22.9888 15.4479 22.7544L21.776 16.52C22.0104 16.2856 22.0104 15.9106 21.776 15.7231L21.401 15.3013Z" fill="#4DDBB7"/>
</svg>
