<svg width="32" height="33" viewBox="0 0 32 33" fill="none" xmlns="http://www.w3.org/2000/svg">
<path d="M25.625 4H6.375C4.89844 4 3.75 5.20312 3.75 6.625V25.875C3.75 27.3516 4.89844 28.5 6.375 28.5H25.625C27.0469 28.5 28.25 27.3516 28.25 25.875V6.625C28.25 5.20312 27.0469 4 25.625 4ZM26.5 25.875C26.5 26.3672 26.0625 26.75 25.625 26.75H6.375C5.88281 26.75 5.5 26.3672 5.5 25.875V6.625C5.5 6.1875 5.88281 5.75 6.375 5.75H25.625C26.0625 5.75 26.5 6.1875 26.5 6.625V25.875ZM9.16406 22.7578L9.49219 23.0859C9.71094 23.3594 10.1484 23.3594 10.4219 23.0859L21.0859 12.4219L21.1406 12.4766L21.0859 17.3438C21.0859 17.7266 21.4141 18 21.7422 18H22.2891C22.6719 18 22.9453 17.7266 22.9453 17.3438L23 9.90625C23 9.57812 22.6719 9.25 22.3438 9.25L14.9062 9.30469C14.5234 9.30469 14.25 9.57812 14.25 9.96094V10.5078C14.25 10.8359 14.5234 11.1641 14.9062 11.1641L19.7734 11.1094L19.8281 11.1641L9.16406 21.8281C8.89062 22.1016 8.89062 22.5391 9.16406 22.7578Z" fill="#4DDBB7"/>
</svg>
