<svg width="33" height="33" viewBox="0 0 33 33" fill="none" xmlns="http://www.w3.org/2000/svg">
<path d="M14.8333 10.9653L17.5052 11.7153C17.8802 11.856 18.2083 12.231 18.2083 12.6528C18.2083 13.1685 17.7396 13.5903 17.2239 13.5903H15.4896C15.1146 13.5903 14.7396 13.4966 14.4583 13.2622C14.3177 13.1685 14.0833 13.2153 13.9896 13.3091L13.4271 13.8716C13.2864 14.0122 13.2864 14.2935 13.4739 14.4341C14.0833 14.856 14.7864 15.0903 15.4896 15.0903H15.5833V16.2153C15.5833 16.4497 15.7239 16.5903 15.9583 16.5903H16.7083C16.8958 16.5903 17.0833 16.4497 17.0833 16.2153V15.0903H17.1302C18.2083 15.0903 19.1927 14.481 19.5677 13.4497C20.0364 12.0903 19.1927 10.6372 17.9271 10.2622L15.1614 9.51221C14.7396 9.37158 14.4583 8.99658 14.4583 8.57471C14.4583 8.05908 14.8802 7.59033 15.3958 7.59033H17.1302C17.5052 7.59033 17.8802 7.73096 18.2083 7.96533C18.3489 8.05908 18.5364 8.01221 18.6302 7.87158L19.1927 7.35596C19.3333 7.21533 19.3333 6.93408 19.1458 6.79346C18.5833 6.37158 17.8802 6.09033 17.1302 6.09033H17.0833V4.96533C17.0833 4.77783 16.8958 4.59033 16.7083 4.59033H15.9583C15.7239 4.59033 15.5833 4.77783 15.5833 4.96533V6.09033H15.3958C13.9427 6.09033 12.8177 7.35596 12.9583 8.80908C13.0521 9.84033 13.8489 10.6841 14.8333 10.9653ZM28.9896 20.2466C28.0521 19.4028 26.6458 19.4028 25.7083 20.1997L22.8021 22.4966C22.7083 22.5903 22.6146 22.5903 22.5208 22.5903H20.5521C20.7864 22.1685 20.8802 21.6528 20.7864 21.0903C20.5989 19.7778 19.3802 18.8403 18.0677 18.8403H11.3177C10.3333 18.8403 9.39581 19.1685 8.59894 19.7778L6.81769 21.0903H3.20831C2.97394 21.0903 2.83331 21.2778 2.83331 21.4653V22.2153C2.83331 22.4497 2.97394 22.5903 3.20831 22.5903H7.33331L9.48956 20.9497C10.0521 20.5747 10.6614 20.3403 11.3177 20.3403H18.2083C18.8177 20.3403 19.3333 20.856 19.3333 21.4653C19.3333 22.1216 18.8177 22.5903 18.2083 22.5903H14.0833C13.6614 22.5903 13.3333 22.9653 13.3333 23.3403C13.3333 23.7622 13.6614 24.0903 14.0833 24.0903H22.5208C22.9427 24.0903 23.4114 23.9497 23.7396 23.6685L26.6458 21.3716C27.0208 21.0903 27.5833 20.9966 27.9583 21.3716C28.4739 21.7935 28.4271 22.4966 27.9583 22.9185L23.2239 26.6685C22.8489 26.9497 22.4271 27.1372 21.9583 27.1372H3.20831C2.97394 27.1372 2.83331 27.2778 2.83331 27.5122V28.2622C2.83331 28.4497 2.97394 28.6372 3.20831 28.6372H21.9583C22.7552 28.6372 23.5052 28.356 24.1614 27.8403L28.8958 24.0435C29.4583 23.6216 29.7864 22.9185 29.8333 22.1685C29.8333 21.4653 29.5521 20.7622 28.9896 20.2466Z" fill="#4DDBB7"/>
</svg>
