<svg width="33" height="33" viewBox="0 0 33 33" fill="none" xmlns="http://www.w3.org/2000/svg">
<path d="M25.9896 13.8013L21.1614 13.2856L19.2396 12.4888H18.5364L14.5989 7.61377C15.5833 7.56689 16.3333 7.23877 16.3333 6.86377C16.3333 6.44189 15.3021 6.11377 14.0833 6.11377H8.08331V7.61377H8.83331V13.2388H8.73956L5.73956 9.86377H3.02081L1.70831 11.2231V14.3638L1.33331 14.4106V18.8638L1.70831 18.9106V22.0513L3.02081 23.3638H5.73956L8.73956 19.9888H8.83331V25.6138H8.08331V27.1138H14.0833C15.3021 27.1138 16.3333 26.7856 16.3333 26.3638C16.3333 26.0356 15.5833 25.7075 14.5989 25.6606L18.5364 20.7388H19.2396L21.1614 19.9888L25.9896 19.4731C29.3646 18.7231 31.3333 18.395 31.3333 16.6138C31.3333 14.8794 29.3646 14.5513 25.9896 13.8013ZM25.7552 17.9731L20.8333 18.4888L18.9583 19.2388H17.8333L12.6771 25.6138H10.3333V18.4888H8.08331L5.08331 21.8638H3.63019L3.20831 21.4419V18.8638H3.58331V18.1138H5.50519V17.8794L2.83331 17.5044V15.77L5.50519 15.395V15.1138H3.58331V14.3638H3.20831V11.8325L3.63019 11.3638H5.08331L8.08331 14.7388H10.3333V7.61377H12.6771L17.8333 13.9888H18.9583L20.8333 14.7388L25.7552 15.3013C29.8333 16.1919 29.8333 16.4263 29.8333 16.6138C29.8333 16.8481 29.8333 17.0825 25.7552 17.9731Z" fill="#4DDBB7"/>
</svg>
