<svg width="32" height="33" viewBox="0 0 32 33" fill="none" xmlns="http://www.w3.org/2000/svg">
<path d="M29.125 6.11377H28.375C28.1406 6.11377 28 6.30127 28 6.48877V7.42627L4 13.0513V12.4888C4 12.3013 3.8125 12.1138 3.625 12.1138H2.875C2.64062 12.1138 2.5 12.3013 2.5 12.4888V20.7388C2.5 20.9731 2.64062 21.1138 2.875 21.1138H3.625C3.8125 21.1138 4 20.9731 4 20.7388V20.2231L10.0938 21.6294C10.0469 21.9575 10 22.2856 10 22.6138C10 25.145 11.9688 27.1138 14.5 27.1138C16.6094 27.1138 18.3438 25.6606 18.8125 23.6919L28 25.8481V26.7388C28 26.9731 28.1406 27.1138 28.375 27.1138H29.125C29.3125 27.1138 29.5 26.9731 29.5 26.7388V6.48877C29.5 6.30127 29.3125 6.11377 29.125 6.11377ZM14.5 25.6138C12.8125 25.6138 11.5 24.3013 11.5 22.6138C11.5 22.4263 11.5 22.1919 11.5469 22.0044L17.3594 23.3638C17.0312 24.6763 15.8594 25.6138 14.5 25.6138ZM4 18.6763V14.5981L28 8.97314V24.3013L4 18.6763Z" fill="#4DDBB7"/>
</svg>
