<svg width="32" height="33" viewBox="0 0 32 33" fill="none" xmlns="http://www.w3.org/2000/svg">
<path d="M24.9707 14.7266C24.5957 14.7266 24.2207 15.1016 24.2207 15.4766C24.2207 15.8984 24.5957 16.2266 24.9707 16.2266C25.3926 16.2266 25.7207 15.8984 25.7207 15.4766C25.7207 15.1016 25.3926 14.7266 24.9707 14.7266ZM29.2363 13.2266C29.2363 13.1797 26.5176 11.5391 26.5176 11.5391C26.377 11.4453 26.0488 11.3047 25.6738 11.1641C25.5801 10.8359 25.5332 10.4609 25.4395 10.1328C25.1582 9.10156 24.0801 5.77344 21.9238 5.72656C20.1426 5.72656 19.8613 7.69531 19.8613 7.78906C18.3613 6.99219 17.2363 7.17969 16.5801 7.83594C16.1582 8.25781 15.5957 9.14844 16.3926 10.7891C14.8926 10.0391 13.4863 9.47656 12.2207 9.47656C10.1113 9.47656 8.18945 10.3672 6.73633 11.9609C6.08008 11.3516 5.23633 10.9766 4.3457 10.9766C3.45508 10.9766 2.61133 11.3516 2.00195 12.0078C0.642578 13.3203 0.642578 15.4297 2.00195 16.7422C2.61133 17.3984 3.45508 17.7266 4.3457 17.7266C4.95508 17.7266 5.51758 17.5859 6.0332 17.3047C6.2207 17.5859 6.4082 17.8672 6.64258 18.1484L9.17383 20.8672L8.00195 21.5234C7.39258 21.8984 6.9707 22.6016 6.9707 23.3984V24.4766C6.9707 25.3203 7.39258 26.0234 8.0957 26.4453C8.4707 26.6328 8.8457 26.7734 9.2207 26.7734C9.64258 26.7734 10.0176 26.6328 10.3457 26.4453L12.9238 24.9922L14.1426 26.2578C14.4238 26.5859 14.7988 26.7734 15.2207 26.7734V26.7266H22.7676C23.5645 26.7266 24.2676 26.0703 24.2676 25.2266C24.2676 23.5859 22.9082 22.2266 21.2676 22.2266H19.0176L22.2988 20.7266H26.8457C29.1426 20.7266 31.0176 18.8984 31.0176 16.6016C31.0176 15.2422 30.3613 13.9766 29.2363 13.2266ZM5.51758 15.8047C4.3457 16.7422 3.31445 15.9453 3.0332 15.7109C2.33008 14.9609 2.33008 13.7891 3.0332 13.0391C3.7832 12.3359 4.95508 12.3359 5.70508 13.0391C5.75195 13.1328 5.79883 13.1797 5.8457 13.2266C5.4707 14.0703 5.37695 14.9609 5.51758 15.8047ZM9.5957 25.1328C9.12695 25.4141 8.4707 25.0859 8.4707 24.4766V23.3984C8.4707 23.1172 8.61133 22.8828 8.75195 22.7891L10.2051 21.9922L11.8926 23.8203L9.5957 25.1328ZM26.8457 19.2266H21.9707L18.9707 20.4922V20.3984C18.9707 18.0547 17.4238 15.9922 15.1738 15.3359L13.2051 14.7734C12.2207 14.4922 11.8457 15.9453 12.7832 16.2266L14.752 16.7891C16.3926 17.2578 17.5176 18.7109 17.5176 20.3984V23.7266H21.2676C22.0645 23.7266 22.7676 24.4297 22.7676 25.2266H15.2207L7.7207 17.1172C6.68945 15.9922 6.68945 14.2578 7.7207 13.0859C8.6582 12.0078 10.1113 10.9766 12.2207 10.9766C14.9395 10.9766 19.3926 14.5391 21.9707 16.2266C21.9707 14.7734 21.9707 14.8203 22.1582 14.2109C21.4551 14.0703 20.377 13.4141 19.3926 12.3828C17.9395 10.9297 17.1426 9.38281 17.6582 8.91406C18.127 8.39844 19.7676 9.24219 21.127 10.6484C21.2676 10.7891 21.4082 10.9297 21.5488 11.1172C21.0332 9.00781 21.1738 7.22656 21.9238 7.22656C22.5801 7.22656 23.4707 8.67969 23.9863 10.5078C24.1738 11.2578 24.2676 11.9141 24.3145 12.5234C24.9707 12.4766 25.4395 12.6641 25.7207 12.8047L28.3926 14.4453C29.0488 14.9141 29.5176 15.7109 29.5176 16.6016H29.4707C29.5176 18.0547 28.2988 19.2266 26.8457 19.2266Z" fill="#4DDBB7"/>
</svg>
