<svg width="32" height="33" viewBox="0 0 32 33" fill="none" xmlns="http://www.w3.org/2000/svg">
<path d="M10 21.75H13V20.25H10V21.75ZM28 12.75H26.5V11.25C26.5 8.8125 24.4375 6.75 22 6.75H16.75V3C16.75 2.625 16.375 2.25 16 2.25C15.5781 2.25 15.25 2.625 15.25 3V6.75H10C7.51562 6.75 5.5 8.8125 5.5 11.25V12.75H4C3.15625 12.75 2.5 13.4531 2.5 14.25V20.25C2.5 21.0938 3.15625 21.75 4 21.75H5.5C5.5 24.2344 7.51562 26.25 10 26.25H22C24.4375 26.25 26.5 24.2344 26.5 21.75H28C28.7969 21.75 29.5 21.0938 29.5 20.25V14.25C29.5 13.4531 28.7969 12.75 28 12.75ZM5.5 20.25H4V14.25H5.5V20.25ZM25 21.75C24.9531 23.4375 23.6406 24.75 22 24.75H10C8.3125 24.75 7 23.4375 7 21.75V11.25C7 9.60938 8.3125 8.25 10 8.25H22C23.6406 8.25 25 9.60938 25 11.25V21.75ZM28 20.25H26.5V14.25H28V20.25ZM20.5 11.25C18.8125 11.25 17.5 12.6094 17.5 14.25C17.5 15.9375 18.8125 17.25 20.5 17.25C22.1406 17.25 23.5 15.9375 23.5 14.25C23.4531 12.6094 22.1406 11.2969 20.5 11.25ZM20.5 15.75C19.6562 15.75 19 15.0938 19 14.25C19 13.4531 19.6562 12.75 20.5 12.75C21.2969 12.75 22 13.4531 22 14.25V14.2969C22 15.0938 21.2969 15.7969 20.5 15.7969V15.75ZM19 21.75H22V20.25H19V21.75ZM14.5 21.75H17.5V20.25H14.5V21.75ZM11.5 11.25C9.8125 11.25 8.5 12.6094 8.5 14.25C8.5 15.9375 9.8125 17.25 11.5 17.25C13.1406 17.25 14.5 15.9375 14.5 14.25C14.4531 12.6094 13.1406 11.2969 11.5 11.25ZM11.5 15.75C10.6562 15.75 10 15.0938 10 14.25C10 13.4531 10.6562 12.75 11.5 12.75C12.2969 12.75 13 13.4531 13 14.25V14.2969C13 15.0938 12.2969 15.7969 11.5 15.7969V15.75Z" fill="#4DDBB7"/>
</svg>
