<svg width="33" height="33" viewBox="0 0 33 33" fill="none" xmlns="http://www.w3.org/2000/svg">
<path d="M24.1667 21.8169L28.151 18.1138C28.9948 17.3638 28.7135 16.0513 27.7292 15.6294L24.1667 14.0825V8.36377C24.1667 7.98877 23.7917 7.61377 23.4167 7.61377H21.1667V5.73877C21.1667 5.12939 20.651 4.61377 20.0417 4.61377H13.2917C12.6354 4.61377 12.1667 5.12939 12.1667 5.73877V7.61377H9.91666C9.49478 7.61377 9.16666 7.98877 9.16666 8.36377V14.0825L5.55728 15.6294C4.52603 16.0513 4.33853 17.4106 5.13541 18.1138L9.16666 21.8169C9.16666 23.5044 6.77603 27.1138 2.22916 27.1138C1.90103 27.1138 1.66666 27.395 1.66666 27.6763V28.0513C1.66666 28.3794 1.90103 28.6138 2.22916 28.6138C5.27603 28.6138 7.71353 27.3013 9.26041 25.1919C9.77603 27.1606 11.5104 28.6138 13.6667 28.6138H19.6667C21.776 28.6138 23.5104 27.1606 24.026 25.1919C25.5729 27.3013 28.0104 28.6138 31.1042 28.6138C31.3854 28.6138 31.6667 28.3794 31.6667 28.0513V27.6763C31.6667 27.395 31.3854 27.1138 31.1042 27.1138C26.6979 27.1138 24.1667 23.645 24.1667 21.8169ZM13.6667 6.11377H19.6667V7.61377H13.6667V6.11377ZM10.6667 9.11377H22.6667V13.4731L17.2292 11.1294C17.0417 11.0356 16.8542 11.0356 16.6667 11.0356C16.4323 11.0356 16.2448 11.0356 16.0573 11.1294L10.6667 13.4731V9.11377ZM22.6667 21.1138V24.1138C22.6667 25.8013 21.3073 27.1138 19.6667 27.1138H13.6667C11.9792 27.1138 10.6667 25.8013 10.6667 24.1138V21.1138L6.16666 16.9888L16.6667 12.4888L27.1667 16.9888L22.6667 21.1138Z" fill="#4DDBB7"/>
</svg>
