<svg width="32" height="33" viewBox="0 0 32 33" fill="none" xmlns="http://www.w3.org/2000/svg">
<path d="M27.4375 18.1138H25.5625C24.8125 18.1138 24.1562 18.3481 23.5938 18.7231C24.0625 19.0513 24.4375 19.3794 24.8125 19.8013C25.0469 19.7075 25.2812 19.6138 25.5625 19.6138H27.4375C28.5625 19.6138 29.5 20.645 29.5 21.8638C29.5 22.2856 29.8281 22.6138 30.25 22.6138C30.625 22.6138 31 22.2856 31 21.8638C31 19.8013 29.3594 18.1138 27.4375 18.1138ZM26.5 16.6138C28.5625 16.6138 30.25 14.9731 30.25 12.8638C30.25 10.8013 28.5625 9.11377 26.5 9.11377C24.3906 9.11377 22.75 10.8013 22.75 12.8638C22.75 14.9731 24.3906 16.6138 26.5 16.6138ZM26.5 10.6138C27.7188 10.6138 28.75 11.645 28.75 12.8638C28.75 14.1294 27.7188 15.1138 26.5 15.1138C25.2344 15.1138 24.25 14.1294 24.25 12.8638C24.25 11.645 25.2344 10.6138 26.5 10.6138ZM19.75 19.0981C19.1875 19.0981 18.625 19.145 18.0625 19.3325C17.4062 19.52 16.7031 19.6138 16 19.6138C15.25 19.6138 14.5469 19.52 13.8906 19.3325C13.375 19.145 12.8125 19.0981 12.2031 19.0981C10.5156 19.0981 8.875 19.8481 7.89062 21.2544C7.32812 22.145 7 23.1763 7 24.3013V24.8638C7 26.1294 7.98438 27.1138 9.25 27.1138H22.75C23.9688 27.1138 25 26.1294 25 24.8638V24.3013C25 23.1763 24.625 22.145 24.0625 21.2544C23.0781 19.8481 21.4375 19.0981 19.75 19.0981ZM23.5 24.8638C23.5 25.2856 23.125 25.6138 22.75 25.6138H9.25C8.82812 25.6138 8.5 25.2856 8.5 24.8638V24.3013C8.5 23.5044 8.6875 22.7544 9.15625 22.0981C9.76562 21.1606 10.9375 20.5981 12.2031 20.5981C12.625 20.5981 13.0469 20.645 13.4688 20.7388C14.2656 21.02 15.1094 21.1138 16 21.1138C16.8438 21.1138 17.6875 21.02 18.4844 20.7388C18.9062 20.645 19.3281 20.5981 19.75 20.5981C21.0156 20.5981 22.1875 21.1606 22.7969 22.0981C23.2656 22.7544 23.5 23.5044 23.5 24.3013V24.8638ZM5.5 16.6138C7.5625 16.6138 9.25 14.9731 9.25 12.8638C9.25 10.8013 7.5625 9.11377 5.5 9.11377C3.39062 9.11377 1.75 10.8013 1.75 12.8638C1.75 14.9731 3.39062 16.6138 5.5 16.6138ZM5.5 10.6138C6.71875 10.6138 7.75 11.645 7.75 12.8638C7.75 14.1294 6.71875 15.1138 5.5 15.1138C4.23438 15.1138 3.25 14.1294 3.25 12.8638C3.25 11.645 4.23438 10.6138 5.5 10.6138ZM8.35938 18.7231C7.79688 18.3481 7.14062 18.1138 6.4375 18.1138H4.5625C2.59375 18.1138 1 19.8013 1 21.8638C1 22.2856 1.32812 22.6138 1.75 22.6138C2.125 22.6138 2.5 22.2856 2.5 21.8638C2.5 20.645 3.39062 19.6138 4.5625 19.6138H6.4375C6.67188 19.6138 6.90625 19.7075 7.14062 19.8013C7.51562 19.3794 7.89062 19.0513 8.35938 18.7231ZM16 18.1138C18.8594 18.1138 21.25 15.77 21.25 12.8638V6.11377L18.625 7.42627L16 6.11377L13.375 7.42627L10.75 6.11377V12.8638C10.75 15.77 13.0938 18.1138 16 18.1138ZM12.25 8.55127L13.375 9.11377L16 7.80127L18.625 9.11377L19.75 8.55127V10.6138H12.25V8.55127ZM12.25 12.1138H19.75V12.8638C19.75 14.9731 18.0625 16.6138 16 16.6138C13.8906 16.6138 12.25 14.9731 12.25 12.8638V12.1138Z" fill="#4DDBB7"/>
</svg>
