<svg width="16" height="16" viewBox="0 0 16 16" fill="none" xmlns="http://www.w3.org/2000/svg">
<path d="M13.1094 4.67188C13.1797 4.67188 13.25 4.625 13.25 4.53125V3.96875C13.25 3.89844 13.1797 3.82812 13.1094 3.82812H2.89062C2.79688 3.82812 2.75 3.89844 2.75 3.96875V4.53125C2.75 4.625 2.79688 4.67188 2.89062 4.67188H13.1094ZM13.1094 8.42188C13.1797 8.42188 13.25 8.375 13.25 8.28125V7.71875C13.25 7.64844 13.1797 7.57812 13.1094 7.57812H2.89062C2.79688 7.57812 2.75 7.64844 2.75 7.71875V8.28125C2.75 8.375 2.79688 8.42188 2.89062 8.42188H13.1094ZM13.1094 12.1719C13.1797 12.1719 13.25 12.125 13.25 12.0312V11.4688C13.25 11.3984 13.1797 11.3281 13.1094 11.3281H2.89062C2.79688 11.3281 2.75 11.3984 2.75 11.4688V12.0312C2.75 12.125 2.79688 12.1719 2.89062 12.1719H13.1094Z" fill="white"/>
</svg>
