<svg width="107" height="40" viewBox="0 0 107 40" fill="none" xmlns="http://www.w3.org/2000/svg">
<path d="M16.6091 10.28L16.3164 10.56L10.6909 24.2291H10.4109L4.78545 10.56L4.50545 10.28H0.28L0 10.56V29.5364L0.28 29.8164H3.65273L3.94545 29.5364V18.6546H4.22545L8.71818 29.5364L9.01091 29.8164H12.1036L12.3836 29.5364L16.8891 18.6546H17.1691V29.5364L17.4491 29.8164H20.8218L21.1018 29.5364V10.56L20.8218 10.28H16.6091Z" fill="white"/>
<path d="M29.5272 29.8164H26.1545L25.8745 29.5364V10.56L26.1545 10.28H29.5272L29.8072 10.56V29.5364L29.5272 29.8164Z" fill="white"/>
<path d="M34.8601 10.28H38.8055L39.3655 10.56L46.9637 23.3891H47.2437V10.56L47.5237 10.28H50.9092L51.1892 10.56V29.5364L50.9092 29.8164H46.9637L46.4037 29.5364L38.8055 16.6946H38.5255V29.5364L38.2455 29.8164H34.8601L34.5801 29.5364V10.56L34.8601 10.28Z" fill="white"/>
<path d="M62.86 30.0964C57.2345 30.0964 54.7018 27.3091 54.7018 23.6818L54.9818 23.4018H58.3545L58.6345 23.6818C58.6345 25.6418 59.7545 26.7491 63.14 26.7491C65.6727 26.7491 67.0854 25.9091 67.0854 24.2418C67.0854 22.2945 65.9654 21.7345 62.02 21.1745C58.0745 20.6145 54.9818 19.2145 54.9818 15.32C54.9818 12.5073 57.2345 10 62.58 10C67.9254 10 70.1782 12.5073 70.1782 15.8545L69.8982 16.1345H66.5254L66.2454 15.8545C66.2454 14.1873 65.4054 13.3473 62.3 13.3473C59.7672 13.3473 58.9272 14.1873 58.9272 15.3073C58.9272 16.9745 60.0472 17.5345 63.9927 18.0945C67.9382 18.6545 71.0309 20.3218 71.0309 24.2291C71.0181 27.2964 68.7654 30.0964 62.86 30.0964Z" fill="white"/>
<path d="M89.4473 29.8164H87.4873L86.9146 29.5364L80.7291 22.0018H80.4491L78.4764 23.9491V29.5364L78.1964 29.8164H74.8237L74.5437 29.5364V10.56L74.8237 10.28H78.1964L78.4764 10.56V18.6546H78.7564L86.9146 10.56L87.4873 10.28H88.8873L89.1673 10.56V13.3473L83.5419 18.9346V19.2146L89.7273 26.7364V29.5364L89.4473 29.8164Z" fill="white"/>
<path d="M101.284 22.5618V29.5364L101.004 29.8164H97.6181L97.3381 29.5364V22.5618L91.7126 13.3473V10.56L91.9926 10.28H93.9654L94.5254 10.56L99.0308 18.0946H99.5908L104.096 10.56L104.656 10.28H106.629L106.909 10.56V13.3473L101.284 22.5618Z" fill="white"/>
<path d="M0 37.72V34.3728L0.28 34.0928H20.8218L21.1018 34.3728V37.72L20.8218 38H0.28L0 37.72Z" fill="#4DDBB7"/>
</svg>
