<svg width="1280" height="484" viewBox="0 0 1280 484" fill="none" xmlns="http://www.w3.org/2000/svg">
<path opacity="0.15" d="M339 116.75C411 116.75 411 316.75 483 316.75" stroke="#4DDBB7"/>
<path opacity="0.15" d="M339 116.75C411 116.75 411 216.75 483 216.75" stroke="#4DDBB7"/>
<path opacity="0.15" d="M339 116.75C411 116.75 411 116.75 483 116.75" stroke="#4DDBB7"/>
<path opacity="0.15" d="M339 216.75C411 216.75 411 316.75 483 316.75" stroke="#4DDBB7"/>
<path opacity="0.15" d="M339 216.75C411 216.75 411 116.75 483 116.75" stroke="#4DDBB7"/>
<path opacity="0.15" d="M339 216.75C411 216.75 411 216.75 483 216.75" stroke="#4DDBB7"/>
<path opacity="0.15" d="M339 316.75C411 316.75 411 116.75 483 116.75" stroke="#4DDBB7"/>
<path opacity="0.15" d="M339 316.75C411 316.75 411 216.75 483 216.75" stroke="#4DDBB7"/>
<path opacity="0.15" d="M339 316.75C411 316.75 411 316.75 483 316.75" stroke="#4DDBB7"/>
<path opacity="0.15" d="M339 416.75C411 416.75 411 216.75 483 216.75" stroke="#4DDBB7"/>
<path opacity="0.15" d="M339 416.75C411 416.75 411 316.75 483 316.75" stroke="#4DDBB7"/>
<path opacity="0.15" d="M339 416.75C411 416.75 411 116.75 483 116.75" stroke="#4DDBB7"/>
<path d="M483 116.75L477 120.214L477 113.286L483 116.75Z" fill="#4DDBB7"/>
<path d="M483 216.75L477 220.214L477 213.286L483 216.75Z" fill="#4DDBB7"/>
<path d="M483 316.75L477 320.214L477 313.286L483 316.75Z" fill="#4DDBB7"/>
<path opacity="0.15" d="M941 116.75C869 116.75 869 316.75 797 316.75" stroke="#4DDBB7"/>
<path opacity="0.15" d="M941 116.75C869 116.75 869 216.75 797 216.75" stroke="#4DDBB7"/>
<path opacity="0.15" d="M941 116.75C869 116.75 869 116.75 797 116.75" stroke="#4DDBB7"/>
<path opacity="0.15" d="M941 216.75C869 216.75 869 316.75 797 316.75" stroke="#4DDBB7"/>
<path opacity="0.15" d="M941 216.75C869 216.75 869 116.75 797 116.75" stroke="#4DDBB7"/>
<path opacity="0.15" d="M941 216.75C869 216.75 869 216.75 797 216.75" stroke="#4DDBB7"/>
<path opacity="0.15" d="M941 316.75C869 316.75 869 116.75 797 116.75" stroke="#4DDBB7"/>
<path opacity="0.15" d="M941 316.75C869 316.75 869 216.75 797 216.75" stroke="#4DDBB7"/>
<path opacity="0.15" d="M941 316.75C869 316.75 869 316.75 797 316.75" stroke="#4DDBB7"/>
<path opacity="0.15" d="M941 416.75C869 416.75 869 216.75 797 216.75" stroke="#4DDBB7"/>
<path opacity="0.15" d="M941 416.75C869 416.75 869 316.75 797 316.75" stroke="#4DDBB7"/>
<path opacity="0.15" d="M941 416.75C869 416.75 869 116.75 797 116.75" stroke="#4DDBB7"/>
<path d="M942 116.75L936 120.214L936 113.286L942 116.75Z" fill="#4DDBB7"/>
<path d="M942 216.75L936 220.214L936 213.286L942 216.75Z" fill="#4DDBB7"/>
<path d="M942 316.75L936 320.214L936 313.286L942 316.75Z" fill="#4DDBB7"/>
<path d="M942 416.75L936 420.214L936 413.286L942 416.75Z" fill="#4DDBB7"/>
</svg>
